<?xml version="1.0" standalone="no"?>
<!DOCTYPE svg PUBLIC "-//W3C//DTD SVG 20010904//EN"
 "http://www.w3.org/TR/2001/REC-SVG-20010904/DTD/svg10.dtd">
<svg version="1.0" xmlns="http://www.w3.org/2000/svg"
 width="512.000000pt" height="512.000000pt" viewBox="0 0 512.000000 512.000000"
 preserveAspectRatio="xMidYMid meet">

<g transform="translate(0.000000,512.000000) scale(0.100000,-0.100000)"
fill="#000000" stroke="none">
<path d="M105 5015 l-25 -24 0 -2069 c0 -1957 1 -2071 18 -2090 18 -22 1634
-752 1663 -752 10 0 374 160 809 356 l791 356 792 -356 c436 -196 802 -356
815 -356 13 0 34 11 47 25 l25 24 0 2069 c0 1957 -1 2071 -17 2090 -19 22
-1631 752 -1661 752 -9 0 -373 -160 -809 -356 l-792 -356 -791 356 c-435 196
-802 356 -816 356 -14 0 -36 -11 -49 -25z m860 -505 l710 -319 3 -1951 c1
-1072 -1 -1950 -4 -1950 -5 0 -1311 585 -1401 628 l-33 16 0 1948 c0 1071 3
1948 8 1948 4 0 327 -144 717 -320z m2313 -1630 l-3 -1951 -710 -319 c-390
-176 -713 -320 -717 -320 -5 0 -8 877 -8 1949 l0 1948 213 96 c791 357 1213
547 1220 547 4 0 6 -878 5 -1950z m887 1630 l710 -320 3 -1950 c1 -1072 -1
-1950 -4 -1950 -5 0 -772 343 -1256 562 l-178 81 0 1948 c0 1072 3 1949 8
1949 4 0 327 -144 717 -320z"/>
<path d="M425 4455 l-25 -24 0 -549 c0 -509 1 -551 18 -570 20 -24 993 -432
1029 -432 13 0 35 11 48 25 l25 24 0 549 c0 509 -1 551 -17 570 -21 24 -994
432 -1030 432 -13 0 -35 -11 -48 -25z m573 -357 l362 -151 0 -433 0 -433 -127
53 c-71 29 -251 104 -400 166 l-273 113 0 434 0 433 38 -15 c20 -9 200 -84
400 -167z"/>
<path d="M501 3009 c-5 -13 -19 -46 -30 -73 -12 -27 -20 -50 -19 -51 18 -16
952 -394 958 -388 10 10 62 134 58 137 -4 3 -918 383 -940 392 -13 4 -20 -1
-27 -17z"/>
<path d="M501 2608 c-5 -13 -19 -45 -30 -72 -12 -27 -20 -50 -19 -51 18 -16
952 -394 958 -388 16 17 58 128 51 135 -6 7 -938 398 -947 398 -3 0 -8 -10
-13 -22z"/>
<path d="M501 2208 c-5 -13 -19 -45 -30 -72 -12 -27 -20 -50 -19 -51 18 -16
952 -394 958 -388 16 17 58 128 51 135 -6 7 -938 398 -947 398 -3 0 -8 -10
-13 -22z"/>
<path d="M501 1808 c-5 -13 -19 -45 -30 -72 -12 -27 -20 -50 -19 -51 21 -17
952 -395 958 -389 16 17 58 129 51 136 -6 7 -938 398 -947 398 -3 0 -8 -10
-13 -22z"/>
<path d="M2525 3633 c-258 -108 -471 -197 -473 -198 -3 -3 49 -127 58 -138 5
-6 937 372 958 388 6 5 -54 139 -64 141 -5 2 -220 -85 -479 -193z"/>
<path d="M2525 3233 c-258 -108 -471 -197 -473 -198 -3 -3 49 -127 58 -138 5
-6 937 372 958 388 6 5 -54 139 -64 141 -5 2 -220 -85 -479 -193z"/>
<path d="M2525 2833 c-258 -108 -471 -197 -473 -198 -3 -3 49 -127 58 -138 5
-6 937 372 958 388 6 5 -54 139 -64 141 -5 2 -220 -85 -479 -193z"/>
<path d="M2525 2433 c-258 -108 -471 -197 -473 -198 -3 -3 49 -127 58 -138 5
-6 937 372 958 388 6 5 -54 139 -64 141 -5 2 -220 -85 -479 -193z"/>
<path d="M2530 2036 c-267 -111 -495 -212 -507 -224 l-23 -21 0 -551 0 -551
25 -24 c13 -14 35 -25 48 -25 36 0 1009 408 1030 432 16 19 17 61 17 570 l0
549 -25 24 c-15 16 -35 25 -52 24 -15 0 -246 -92 -513 -203z m430 -429 l0
-434 -362 -151 c-200 -83 -380 -158 -400 -167 l-38 -15 0 433 0 434 398 166
c218 91 398 166 400 166 1 1 2 -194 2 -432z"/>
<path d="M3625 4455 l-25 -24 0 -549 c0 -509 1 -551 18 -570 20 -24 993 -432
1029 -432 13 0 35 11 48 25 l25 24 0 549 c0 509 -1 551 -17 570 -21 24 -994
432 -1030 432 -13 0 -35 -11 -48 -25z m573 -357 l362 -151 0 -433 0 -433 -127
53 c-71 29 -251 104 -400 166 l-273 113 0 434 0 433 38 -15 c20 -9 200 -84
400 -167z"/>
<path d="M3703 3013 c-3 -10 -17 -42 -30 -72 -13 -30 -22 -55 -21 -56 21 -15
951 -395 957 -391 9 6 64 137 59 141 -7 5 -948 395 -953 395 -3 0 -8 -8 -12
-17z"/>
<path d="M3703 2613 c-3 -10 -17 -42 -30 -72 -13 -30 -22 -55 -21 -56 17 -13
951 -395 957 -391 9 6 64 137 59 140 -8 6 -948 396 -953 396 -3 0 -8 -8 -12
-17z"/>
<path d="M3703 2214 c-3 -11 -17 -43 -30 -73 -13 -30 -22 -55 -21 -56 15 -13
951 -395 957 -391 9 6 64 137 59 140 -4 3 -916 382 -940 391 -12 5 -20 1 -25
-11z"/>
<path d="M3703 1813 c-3 -10 -17 -42 -30 -72 -13 -30 -22 -55 -21 -56 2 -2
216 -91 477 -200 266 -110 477 -193 482 -188 16 16 58 128 50 135 -6 7 -938
398 -947 398 -3 0 -7 -8 -11 -17z"/>
</g>
</svg>
