<?xml version="1.0" standalone="no"?>
<!DOCTYPE svg PUBLIC "-//W3C//DTD SVG 20010904//EN"
 "http://www.w3.org/TR/2001/REC-SVG-20010904/DTD/svg10.dtd">
<svg version="1.0" xmlns="http://www.w3.org/2000/svg"
 width="512.000000pt" height="512.000000pt" viewBox="0 0 512.000000 512.000000"
 preserveAspectRatio="xMidYMid meet">

<g transform="translate(0.000000,512.000000) scale(0.100000,-0.100000)"
fill="#000000" stroke="none">
<path d="M2415 4599 c-244 -31 -511 -168 -676 -347 -415 -452 -404 -1136 26
-1566 161 -162 393 -280 617 -316 111 -18 351 -8 450 18 263 71 474 212 631
424 335 450 287 1073 -113 1468 -249 246 -588 362 -935 319z m301 -210 c420
-74 738 -429 761 -850 26 -477 -295 -882 -766 -964 -556 -98 -1072 340 -1071
908 1 438 304 807 741 902 77 16 253 19 335 4z"/>
<path d="M1511 2139 c-153 -30 -262 -89 -376 -204 -73 -72 -99 -107 -133 -175
-77 -156 -76 -141 -80 -727 l-3 -523 105 0 106 0 0 503 c0 546 0 549 58 662
32 64 143 175 207 207 134 67 54 63 1165 63 1118 0 1034 5 1173 -68 68 -36
166 -136 202 -207 53 -105 55 -124 55 -662 l0 -498 106 0 105 0 -3 523 c-4
586 -3 571 -80 727 -34 68 -60 103 -133 175 -97 97 -170 143 -300 187 l-70 23
-1030 2 c-566 0 -1050 -3 -1074 -8z"/>
</g>
</svg>
