<?xml version="1.0" standalone="no"?>
<!DOCTYPE svg PUBLIC "-//W3C//DTD SVG 20010904//EN"
 "http://www.w3.org/TR/2001/REC-SVG-20010904/DTD/svg10.dtd">
<svg version="1.0" xmlns="http://www.w3.org/2000/svg"
 width="512.000000pt" height="512.000000pt" viewBox="0 0 512.000000 512.000000"
 preserveAspectRatio="xMidYMid meet">

<g transform="translate(0.000000,512.000000) scale(0.100000,-0.100000)"
fill="#000000" stroke="none">
<path d="M1770 5103 c-38 -13 -93 -63 -336 -307 -258 -257 -293 -297 -308
-340 -14 -45 -16 -171 -16 -1291 l0 -1242 -77 -33 c-43 -18 -83 -34 -89 -37
-7 -2 -18 12 -24 33 -19 58 -97 129 -161 148 -76 23 -502 23 -578 0 -61 -18
-123 -69 -154 -128 -22 -41 -22 -42 -22 -711 0 -668 0 -670 22 -710 25 -47 74
-95 123 -121 31 -17 64 -19 293 -22 311 -4 342 2 417 78 37 36 53 62 65 105
16 55 18 57 46 51 15 -3 423 -132 906 -286 631 -202 896 -283 943 -287 78 -7
173 15 241 55 39 22 1419 1122 1803 1437 136 111 166 160 166 264 -1 107 -52
195 -145 244 -31 17 -58 22 -120 22 l-81 0 -249 -141 -250 -140 -3 550 -2 551
455 455 c312 312 459 467 470 492 37 92 13 138 -166 315 -120 118 -151 143
-188 153 -87 23 -104 12 -342 -226 -118 -118 -217 -214 -221 -214 -4 0 -9 251
-10 558 -3 528 -4 559 -22 596 -25 50 -72 97 -122 122 -38 18 -73 19 -1129 21
-961 1 -1095 0 -1135 -14z m2211 -182 l29 -29 0 -629 0 -628 -395 -395 -395
-396 -75 -224 -74 -225 -747 -5 -746 -5 -19 -24 c-27 -33 -25 -86 6 -116 l24
-25 833 0 833 0 225 75 225 75 152 152 153 153 0 -515 0 -516 -134 -76 -135
-76 -7 32 c-17 82 -86 160 -165 189 -24 9 -192 42 -374 72 -181 31 -593 102
-915 157 -530 92 -597 102 -710 102 -115 0 -168 -8 -272 -40 -17 -5 -18 55
-18 1170 l0 1176 183 0 c210 0 260 10 324 65 23 19 52 56 65 83 21 44 23 61
26 250 l4 202 1035 0 1035 0 29 -29z m-2271 -211 c0 -174 -15 -190 -190 -190
-60 0 -110 3 -110 7 0 10 283 293 292 293 5 0 8 -49 8 -110z m3123 -738 l117
-117 -60 -60 -60 -60 -120 120 -120 120 57 57 c32 32 60 58 63 58 3 0 58 -53
123 -118z m-240 -240 l117 -117 -58 -58 c-32 -31 -62 -57 -67 -57 -6 0 -62 52
-125 115 l-115 115 60 60 c33 33 62 60 65 60 3 0 58 -53 123 -118z m-530 -764
l-403 -403 -120 120 -120 120 402 402 403 403 120 -120 120 -120 -402 -402z
m-639 -407 l78 -79 -113 -37 c-63 -21 -119 -40 -126 -42 -7 -3 5 46 28 116 23
67 44 121 48 121 3 0 42 -35 85 -79z m-2682 -709 l23 -23 0 -634 0 -634 -23
-23 c-22 -23 -26 -23 -273 -23 l-251 0 -24 28 -24 28 0 622 c0 675 -2 654 54
677 11 5 128 8 258 7 232 -2 238 -2 260 -25z m1847 -136 c503 -87 922 -161
932 -167 52 -27 64 -100 25 -146 l-24 -28 -799 -5 c-866 -5 -833 -3 -851 -60
-12 -37 -4 -64 24 -91 25 -23 33 -24 207 -29 l182 -5 230 -144 c126 -78 246
-151 265 -161 58 -30 118 -34 180 -13 30 10 443 238 916 506 638 360 870 487
894 487 45 0 90 -47 90 -93 0 -20 -3 -42 -6 -51 -8 -22 -1834 -1486 -1890
-1515 -87 -47 -119 -42 -414 52 -327 106 -1261 405 -1428 458 -68 21 -136 39
-152 39 l-30 0 0 458 0 457 213 92 c243 105 315 124 437 119 47 -2 496 -74
999 -160z m472 -608 c-81 -45 -156 -81 -171 -81 -23 0 -280 146 -280 159 0 2
134 4 298 4 l297 0 -144 -82z"/>
<path d="M1600 4093 c-60 -22 -81 -100 -37 -141 l23 -22 1060 0 1061 0 21 23
c31 33 29 87 -4 118 l-26 24 -1041 2 c-573 1 -1049 -1 -1057 -4z"/>
<path d="M1583 3660 c-48 -19 -58 -95 -18 -135 23 -24 30 -25 139 -25 106 0
117 2 142 24 39 33 39 89 0 122 -25 22 -35 24 -134 23 -59 0 -117 -4 -129 -9z"/>
<path d="M2095 3658 c-51 -29 -61 -93 -20 -133 l24 -25 758 0 c801 1 776 -1
801 47 19 35 14 63 -17 94 l-29 29 -749 0 c-544 -1 -753 -4 -768 -12z"/>
<path d="M1565 3215 c-41 -40 -33 -105 16 -130 38 -20 720 -22 759 -2 54 27
63 94 20 137 -19 19 -35 20 -395 20 l-376 0 -24 -25z"/>
<path d="M2585 3215 c-35 -34 -33 -78 4 -116 l29 -29 277 0 c281 0 304 3 332
39 21 27 15 79 -12 106 l-24 25 -291 0 -291 0 -24 -25z"/>
<path d="M1600 2813 c-60 -23 -81 -100 -37 -141 l23 -22 633 0 632 0 24 25
c32 31 32 75 1 112 l-24 28 -619 2 c-340 1 -625 -1 -633 -4z"/>
<path d="M390 1697 c-54 -27 -63 -94 -20 -137 17 -17 34 -20 98 -20 83 0 112
14 127 60 10 31 -13 79 -46 95 -34 18 -125 19 -159 2z"/>
<path d="M370 830 c-43 -43 -34 -110 20 -137 32 -16 128 -16 160 0 53 27 62
96 18 137 -32 29 -169 29 -198 0z"/>
</g>
</svg>
