<?xml version="1.0" standalone="no"?>
<!DOCTYPE svg PUBLIC "-//W3C//DTD SVG 20010904//EN"
 "http://www.w3.org/TR/2001/REC-SVG-20010904/DTD/svg10.dtd">
<svg version="1.0" xmlns="http://www.w3.org/2000/svg"
 width="512.000000pt" height="512.000000pt" viewBox="0 0 512.000000 512.000000"
 preserveAspectRatio="xMidYMid meet">

<g transform="translate(0.000000,512.000000) scale(0.100000,-0.100000)"
fill="#000000" stroke="none">
<path d="M1555 5106 c-84 -21 -147 -57 -211 -121 -65 -65 -105 -136 -123 -223
-8 -37 -11 -358 -11 -1060 l0 -1008 -96 -18 c-275 -51 -508 -176 -709 -380
-163 -164 -254 -312 -324 -521 -133 -400 -74 -827 164 -1185 27 -41 99 -125
160 -186 194 -196 397 -309 680 -377 l90 -21 1755 -4 c1286 -2 1771 0 1815 8
81 16 185 72 239 130 53 56 99 144 115 218 8 38 11 556 11 1848 0 1624 -2
1798 -16 1827 -22 44 -1020 1044 -1066 1068 -36 18 -70 19 -1230 18 -919 -1
-1204 -4 -1243 -13z m2255 -726 c0 -422 1 -442 20 -480 13 -26 34 -47 60 -60
38 -19 58 -20 480 -20 l440 0 0 -1700 c0 -1685 0 -1701 -20 -1740 -13 -26 -34
-47 -60 -60 -39 -20 -56 -20 -1277 -20 l-1238 0 101 103 c196 198 320 433 370
701 l18 96 793 0 c776 0 795 0 833 20 45 23 80 80 80 130 0 50 -35 107 -80
130 -38 20 -57 20 -833 20 l-795 0 -6 48 c-21 142 -88 336 -162 464 -24 42
-44 80 -44 83 0 3 405 5 900 5 883 0 902 0 940 20 45 23 80 80 80 130 0 50
-35 107 -80 130 -39 20 -57 20 -1080 20 l-1041 0 -52 38 c-168 125 -398 220
-599 248 l-48 6 0 1007 c1 1131 -5 1048 76 1097 l39 24 1093 0 1092 0 0 -440z
m545 -20 l240 -240 -243 0 -242 0 0 240 c0 132 1 240 3 240 1 0 110 -108 242
-240z m-2755 -1988 c198 -52 365 -146 501 -281 135 -135 226 -297 282 -501 16
-62 20 -104 20 -240 0 -180 -10 -235 -72 -395 -94 -243 -333 -482 -576 -576
-160 -62 -215 -72 -395 -72 -180 0 -235 10 -395 72 -243 94 -482 333 -576 576
-61 158 -72 216 -73 390 -1 179 16 267 79 416 137 325 458 574 810 629 94 14
308 4 395 -18z"/>
<path d="M1988 3279 c-43 -22 -78 -81 -78 -129 0 -50 35 -107 80 -130 39 -20
56 -20 1170 -20 1114 0 1131 0 1170 20 45 23 80 80 80 130 0 50 -35 107 -80
130 -39 20 -56 20 -1172 20 -1108 -1 -1134 -1 -1170 -21z"/>
<path d="M1288 2079 c-23 -12 -46 -35 -58 -59 -19 -37 -20 -58 -20 -370 0
-312 1 -333 20 -370 13 -26 34 -47 60 -60 36 -18 58 -20 270 -20 212 0 234 2
270 20 45 23 80 80 80 130 0 50 -35 107 -80 130 -34 17 -59 20 -180 20 l-140
0 0 240 c0 222 -2 244 -20 280 -37 73 -127 99 -202 59z"/>
</g>
</svg>
