<?xml version="1.0" standalone="no"?>
<!DOCTYPE svg PUBLIC "-//W3C//DTD SVG 20010904//EN"
        "http://www.w3.org/TR/2001/REC-SVG-20010904/DTD/svg10.dtd">
<svg version="1.0" xmlns="http://www.w3.org/2000/svg"
     width="512.000000pt" height="512.000000pt" viewBox="0 0 512.000000 512.000000"
     preserveAspectRatio="xMidYMid meet">

    <g transform="translate(0.000000,512.000000) scale(0.100000,-0.100000)"
       fill="#000000" stroke="none">
        <path d="M1463 4787 l-333 -333 0 -467 0 -467 -362 0 c-407 0 -403 1 -462 -73
l-31 -39 -3 -1131 c-1 -623 0 -1147 3 -1165 7 -37 55 -96 96 -118 23 -11 94
-14 393 -14 l365 0 3 -418 3 -418 28 -42 c15 -23 46 -54 69 -69 l42 -28 1260
-3 c919 -2 1272 0 1302 9 55 15 107 59 133 112 20 42 21 58 21 450 l0 407 365
0 c296 0 371 3 393 14 36 19 78 65 91 99 7 19 11 199 11 528 l0 500 -25 24
c-29 30 -64 32 -96 6 l-24 -19 -5 -499 -5 -498 -87 -3 -88 -3 0 424 c0 423 0
424 -23 458 -12 19 -42 44 -67 56 l-44 23 -1826 0 -1826 0 -44 -22 c-25 -13
-55 -38 -67 -57 -23 -34 -23 -35 -23 -458 l0 -424 -87 3 -88 3 0 1115 0 1115
2135 0 2135 0 5 -478 5 -479 24 -19 c34 -28 75 -24 101 8 20 26 21 32 18 519
l-3 492 -31 39 c-59 74 -55 73 -461 73 l-363 0 0 715 c0 782 2 755 -58 819
-15 16 -45 37 -67 47 -37 17 -76 19 -598 19 l-558 0 -24 -25 c-14 -13 -25 -36
-25 -50 0 -14 11 -37 25 -50 l24 -25 549 0 c519 0 550 -1 565 -18 16 -17 17
-82 17 -725 l0 -707 -1280 0 -1280 0 0 409 0 409 238 4 c230 3 238 4 279 27
52 30 88 80 102 141 6 25 11 138 11 253 l0 207 250 0 251 0 24 25 c14 13 25
36 25 50 0 14 -11 37 -25 50 l-24 25 -308 0 -307 0 -333 -333z m292 -234 c-10
-57 -31 -63 -210 -63 l-160 0 185 185 185 185 3 -137 c2 -76 0 -152 -3 -170z
m2615 -2778 l0 -165 -1810 0 -1810 0 0 165 0 165 1810 0 1810 0 0 -165z
m-3240 -480 l0 -165 -190 0 -190 0 0 165 0 165 190 0 190 0 0 -165z m2710
-470 c0 -622 0 -635 -20 -655 -20 -20 -33 -20 -1260 -20 -1227 0 -1240 0
-1260 20 -20 20 -20 33 -20 655 l0 635 1280 0 1280 0 0 -635z m530 470 l0
-165 -190 0 -190 0 0 165 0 165 190 0 190 0 0 -165z"/>
        <path d="M1584 1270 c-26 -10 -54 -48 -54 -71 0 -9 9 -28 21 -43 l20 -26 989
0 989 0 20 26 c27 35 26 57 -3 91 l-24 28 -969 2 c-533 1 -978 -2 -989 -7z"/>
        <path d="M1574 948 c-22 -10 -44 -47 -44 -74 0 -8 11 -26 25 -39 l24 -25 981
0 981 0 24 25 c14 13 25 31 25 39 0 28 -22 64 -47 75 -33 15 -1938 14 -1969
-1z"/>
        <path d="M1559 621 c-17 -13 -23 -29 -23 -56 0 -27 6 -43 23 -56 22 -18 61
-19 1001 -19 940 0 979 1 1001 19 32 26 32 86 0 112 -22 18 -61 19 -1001 19
-940 0 -979 -1 -1001 -19z"/>
        <path d="M3965 2978 c-126 -44 -198 -183 -161 -310 69 -238 413 -238 482 1 38
128 -31 262 -157 306 -48 17 -120 18 -164 3z m144 -164 c38 -32 49 -80 27
-122 -20 -38 -44 -52 -91 -52 -50 0 -74 15 -91 57 -20 46 -10 86 28 118 39 33
87 33 127 -1z"/>
    </g>
</svg>
