<?xml version="1.0" standalone="no"?>
<!DOCTYPE svg PUBLIC "-//W3C//DTD SVG 20010904//EN"
        "http://www.w3.org/TR/2001/REC-SVG-20010904/DTD/svg10.dtd">
<svg version="1.0" xmlns="http://www.w3.org/2000/svg"
     width="512.000000pt" height="512.000000pt" viewBox="0 0 512.000000 512.000000"
     preserveAspectRatio="xMidYMid meet">

    <g transform="translate(0.000000,512.000000) scale(0.100000,-0.100000)"
       fill="#000000" stroke="none">
        <path d="M2500 5092 l-30 -30 0 -297 c0 -193 4 -303 11 -317 6 -11 26 -26 45
-34 29 -12 39 -12 68 0 19 8 39 23 45 34 7 14 11 124 11 316 0 291 0 295 -22
321 -14 15 -38 28 -60 32 -32 5 -41 1 -68 -25z"/>
        <path d="M1268 4750 c-47 -48 -39 -73 119 -345 126 -216 143 -241 174 -251 68
-23 126 24 116 94 -6 46 -246 465 -288 505 -40 37 -81 36 -121 -3z"/>
        <path d="M3736 4758 c-39 -35 -296 -487 -296 -521 0 -40 17 -67 52 -82 34 -14
82 -6 104 17 7 7 74 119 148 248 109 189 136 242 136 273 0 77 -87 116 -144
65z"/>
        <path d="M2420 3924 c-467 -59 -861 -325 -1068 -723 -62 -118 -85 -179 -117
-301 -194 -755 280 -1516 1048 -1682 135 -29 396 -31 530 -5 266 53 502 176
696 362 203 195 341 449 398 732 27 132 24 394 -5 530 -117 543 -542 961
-1083 1068 -81 16 -328 28 -399 19z m333 -199 c502 -88 886 -469 973 -966 24
-137 15 -360 -20 -492 -114 -437 -457 -767 -901 -867 -131 -29 -359 -29 -490
0 -444 100 -787 430 -901 867 -35 132 -44 355 -20 492 66 377 301 691 644 860
91 46 216 86 321 105 103 19 289 19 394 1z"/>
        <path d="M2440 3379 c-84 -12 -207 -55 -285 -98 -244 -137 -412 -408 -418
-674 -2 -86 -1 -89 26 -113 58 -49 140 -18 151 57 2 19 9 68 15 109 19 141 85
265 195 368 107 100 231 157 368 168 101 8 136 20 153 54 18 35 19 51 3 85
-23 52 -79 63 -208 44z"/>
        <path d="M370 3852 c-39 -40 -40 -81 -2 -121 15 -16 129 -88 254 -160 244
-141 271 -150 322 -110 37 29 37 99 1 131 -50 44 -470 280 -507 285 -32 5 -41
1 -68 -25z"/>
        <path d="M4640 3867 c-93 -49 -450 -260 -468 -277 -33 -31 -31 -101 4 -129 51
-40 78 -31 322 110 125 72 239 144 255 160 37 40 36 82 -2 120 -32 32 -70 37
-111 16z"/>
        <path d="M51 2633 c-46 -38 -42 -126 8 -152 13 -7 123 -11 316 -11 l296 0 24
26 c35 38 34 96 -1 129 l-27 25 -297 0 c-269 0 -300 -2 -319 -17z"/>
        <path d="M4425 2624 c-35 -38 -34 -96 1 -129 l27 -25 297 0 c269 0 300 2 319
18 46 37 42 125 -8 151 -13 7 -123 11 -316 11 l-296 0 -24 -26z"/>
        <path d="M615 1545 c-126 -73 -240 -145 -252 -160 -33 -37 -30 -80 7 -117 27
-26 36 -30 68 -25 37 5 457 241 507 285 36 32 36 102 -1 131 -52 41 -80 31
-329 -114z"/>
        <path d="M4184 1666 c-32 -23 -44 -65 -30 -105 10 -31 35 -48 251 -174 272
-158 297 -167 345 -119 39 40 40 81 3 121 -16 16 -127 86 -248 156 -232 134
-279 152 -321 121z"/>
        <path d="M1528 945 c-44 -50 -280 -470 -285 -507 -5 -32 -1 -41 25 -68 40 -39
81 -40 121 -2 16 15 88 129 160 254 141 244 150 271 110 322 -29 37 -99 37
-131 1z"/>
        <path d="M3461 944 c-40 -51 -31 -78 110 -322 72 -125 144 -239 160 -254 40
-38 81 -37 121 2 26 27 30 36 25 68 -5 37 -241 457 -285 507 -32 36 -102 36
-131 -1z"/>
        <path d="M2495 694 l-25 -27 0 -303 c0 -300 0 -303 23 -329 13 -15 37 -28 59
-32 32 -5 41 -1 68 25 l30 30 0 307 0 306 -26 24 c-38 35 -96 34 -129 -1z"/>
    </g>
</svg>
